<svg version="1.1" id="Layer_1" xmlns="http://www.w3.org/2000/svg" xmlns:xlink="http://www.w3.org/1999/xlink" x="0px" y="0px"
	 width="88.753px" height="72.5px" viewBox="-3.757 0 88.753 72.5" style="enable-background:new -3.757 0 88.753 72.5;"
	 xml:space="preserve">
<path d="M74.631,0.874c0,0-2.604,0.372-4.166,0.845l-0.139-0.625c0,0-2.738,0.465-4.856,1.242l-0.527-2.102
	c0,0-16.869,3.356-25.898,19.412c0.576,1.83,0.686,2.179,1.35,4.288c5.273-12.359,16.82-17.672,22.368-19.847l9.436,37.794
	c-7.89,5.549-13.722,12.449-19.824,20.883c0.342,1.17,1.164,3.588,1.164,3.588c11.271-16.887,22.147-23.123,22.147-23.123
	L66.207,5.325l1.828-0.546l0.419,1.777l2.908-0.655l8.814,39.248c-9.027,6.903-14.227,9.64-26.359,22.256
	c0.396,1.205,0.711,2.164,1.375,4.18c7.886-7.818,14.904-14.089,29.804-24.594C82.322,35.092,74.631,0.874,74.631,0.874z"/>
<path d="M50.994,67.895c0,0-10.25-3.336-34.715-4.096L1.77,26.327l2.825-0.951l-0.708-1.854l1.828-0.566
	c0,0,9.691,26.903,13.234,36.739c13.879-0.49,31.657,6.943,31.657,6.943L36.242,19.712c0,0-7.061-4.247-17.633-4.138
	c-8.756,0.09-14.676,2.458-14.676,2.458l0.731,2.028c-1.968,0.468-4.729,1.666-4.729,1.666l0.232,0.604
	c-1.455,0.416-3.924,1.623-3.924,1.623l17.068,44.059c0,0,19.01-0.097,39.034,4.305C51.683,70.293,50.994,67.895,50.994,67.895z
	 M7.885,20.003c2.129-0.542,5.959-1.306,10.646-1.306c5.554,0,10.65,1.076,15.154,3.197L45.86,61.729
	c-9.707-3.468-17.854-5.232-24.868-5.387L9.31,23.983L7.885,20.003z M46.685,67.373L46.685,67.373L46.685,67.373L46.685,67.373z"/>
</svg>
